# Wavefront OBJ file automatically generated by Tiled2Unity

# Vertices (Count = 234)
v 0 -32 0
v -64 -32 0
v -64 32 0
v 0 32 0
v -128 -32 0
v -128 32 0
v -192 -32 0
v -192 32 0
v -256 -32 0
v -256 32 0
v -320 -32 0
v -320 32 0
v -384 -32 0
v -384 32 0
v -448 -32 0
v -448 32 0
v -512 -32 0
v -512 32 0
v -32 -48 0
v -96 -48 0
v -96 16 0
v -32 16 0
v -160 -48 0
v -160 16 0
v -224 -48 0
v -224 16 0
v -288 -48 0
v -288 16 0
v -352 -48 0
v -352 16 0
v -416 -48 0
v -416 16 0
v -480 -48 0
v -480 16 0
v -544 -48 0
v -544 16 0
v 0 -64 0
v -64 -64 0
v -64 0 0
v 0 0 0
v -128 -64 0
v -128 0 0
v -192 -64 0
v -192 0 0
v -256 -64 0
v -256 0 0
v -320 -64 0
v -320 0 0
v -384 -64 0
v -384 0 0
v -448 -64 0
v -448 0 0
v -512 -64 0
v -512 0 0
v -32 -80 0
v -96 -80 0
v -96 -16 0
v -32 -16 0
v -160 -80 0
v -160 -16 0
v -224 -80 0
v -224 -16 0
v -288 -80 0
v -288 -16 0
v -352 -80 0
v -352 -16 0
v -416 -80 0
v -416 -16 0
v -480 -80 0
v -480 -16 0
v -544 -80 0
v -544 -16 0
v 0 -96 0
v -64 -96 0
v -128 -96 0
v -192 -96 0
v -256 -96 0
v -320 -96 0
v -384 -96 0
v -448 -96 0
v -512 -96 0
v -32 -112 0
v -96 -112 0
v -160 -112 0
v -224 -112 0
v -288 -112 0
v -352 -112 0
v -416 -112 0
v -480 -112 0
v -544 -112 0
v 0 -128 0
v -64 -128 0
v -128 -128 0
v -192 -128 0
v -256 -128 0
v -320 -128 0
v -384 -128 0
v -448 -128 0
v -512 -128 0
v -32 -144 0
v -96 -144 0
v -160 -144 0
v -224 -144 0
v -288 -144 0
v -352 -144 0
v -416 -144 0
v -480 -144 0
v -544 -144 0
v 0 -160 0
v -64 -160 0
v -128 -160 0
v -192 -160 0
v -256 -160 0
v -320 -160 0
v -384 -160 0
v -448 -160 0
v -512 -160 0
v -32 -176 0
v -96 -176 0
v -160 -176 0
v -224 -176 0
v -288 -176 0
v -352 -176 0
v -416 -176 0
v -480 -176 0
v -544 -176 0
v 0 -192 0
v -64 -192 0
v -128 -192 0
v -192 -192 0
v -256 -192 0
v -320 -192 0
v -384 -192 0
v -448 -192 0
v -512 -192 0
v -32 -208 0
v -96 -208 0
v -160 -208 0
v -224 -208 0
v -288 -208 0
v -352 -208 0
v -416 -208 0
v -480 -208 0
v -544 -208 0
v 0 -224 0
v -64 -224 0
v -128 -224 0
v -192 -224 0
v -256 -224 0
v -320 -224 0
v -384 -224 0
v -448 -224 0
v -512 -224 0
v -32 -240 0
v -96 -240 0
v -160 -240 0
v -224 -240 0
v -288 -240 0
v -352 -240 0
v -416 -240 0
v -480 -240 0
v -544 -240 0
v 0 -256 0
v -64 -256 0
v -128 -256 0
v -192 -256 0
v -256 -256 0
v -320 -256 0
v -384 -256 0
v -448 -256 0
v -512 -256 0
v -32 -272 0
v -96 -272 0
v -160 -272 0
v -224 -272 0
v -288 -272 0
v -352 -272 0
v -416 -272 0
v -480 -272 0
v -544 -272 0
v 0 -288 0
v -64 -288 0
v -128 -288 0
v -192 -288 0
v -256 -288 0
v -320 -288 0
v -384 -288 0
v -448 -288 0
v -512 -288 0
v -32 -304 0
v -96 -304 0
v -160 -304 0
v -224 -304 0
v -288 -304 0
v -352 -304 0
v -416 -304 0
v -480 -304 0
v -544 -304 0
v 0 -320 0
v -64 -320 0
v -128 -320 0
v -192 -320 0
v -256 -320 0
v -320 -320 0
v -384 -320 0
v -448 -320 0
v -512 -320 0
v -32 -336 0
v -96 -336 0
v -160 -336 0
v -224 -336 0
v -288 -336 0
v -352 -336 0
v -416 -336 0
v -480 -336 0
v -544 -336 0
v 0 -352 0
v -64 -352 0
v -128 -352 0
v -192 -352 0
v -256 -352 0
v -320 -352 0
v -384 -352 0
v -448 -352 0
v -512 -352 0
v -32 -368 0
v -96 -368 0
v -160 -368 0
v -224 -368 0
v -288 -368 0
v -352 -368 0
v -416 -368 0
v -480 -368 0
v -544 -368 0

# Texture cooridinates (Count = 152)
vt 0.0001220703 0.9376221
vt 0.09987793 0.9376221
vt 0.09987793 0.9998779
vt 0.0001220703 0.9998779
vt 0.4001221 0.9376221
vt 0.4998779 0.9376221
vt 0.4998779 0.9998779
vt 0.4001221 0.9998779
vt 0.1001221 0.3751221
vt 0.1998779 0.3751221
vt 0.1998779 0.4373779
vt 0.1001221 0.4373779
vt 0.2001221 0.8126221
vt 0.2998779 0.8126221
vt 0.2998779 0.8748779
vt 0.2001221 0.8748779
vt 0.900122 0.4376221
vt 0.9998779 0.4376221
vt 0.9998779 0.4998779
vt 0.900122 0.4998779
vt 0.3001221 0.8126221
vt 0.3998779 0.8126221
vt 0.3998779 0.8748779
vt 0.3001221 0.8748779
vt 0.6001221 0.3751221
vt 0.6998779 0.3751221
vt 0.6998779 0.4373779
vt 0.6001221 0.4373779
vt 0.8001221 0.4376221
vt 0.8998779 0.4376221
vt 0.8998779 0.4998779
vt 0.8001221 0.4998779
vt 0.0001220703 0.8751221
vt 0.09987793 0.8751221
vt 0.09987793 0.9373779
vt 0.0001220703 0.9373779
vt 0.3001221 0.4376221
vt 0.3998779 0.4376221
vt 0.3998779 0.4998779
vt 0.3001221 0.4998779
vt 0.4001221 0.4376221
vt 0.4998779 0.4376221
vt 0.4998779 0.4998779
vt 0.4001221 0.4998779
vt 0.6001221 0.4376221
vt 0.6998779 0.4376221
vt 0.6998779 0.4998779
vt 0.6001221 0.4998779
vt 0.1001221 0.8126221
vt 0.1998779 0.8126221
vt 0.1998779 0.8748779
vt 0.1001221 0.8748779
vt 0.1001221 0.4376221
vt 0.1998779 0.4376221
vt 0.1998779 0.4998779
vt 0.1001221 0.4998779
vt 0.7001221 0.3751221
vt 0.7998779 0.3751221
vt 0.7998779 0.4373779
vt 0.7001221 0.4373779
vt 0.2001221 0.9376221
vt 0.2998779 0.9376221
vt 0.2998779 0.9998779
vt 0.2001221 0.9998779
vt 0.7001221 0.8751221
vt 0.7998779 0.8751221
vt 0.7998779 0.9373779
vt 0.7001221 0.9373779
vt 0.0001220703 0.8126221
vt 0.09987793 0.8126221
vt 0.09987793 0.8748779
vt 0.0001220703 0.8748779
vt 0.3001221 0.9376221
vt 0.3998779 0.9376221
vt 0.3998779 0.9998779
vt 0.3001221 0.9998779
vt 0.4001221 0.3751221
vt 0.4998779 0.3751221
vt 0.4998779 0.4373779
vt 0.4001221 0.4373779
vt 0.1001221 0.9376221
vt 0.1998779 0.9376221
vt 0.1998779 0.9998779
vt 0.1001221 0.9998779
vt 0.2001221 0.3751221
vt 0.2998779 0.3751221
vt 0.2998779 0.4373779
vt 0.2001221 0.4373779
vt 0.4001221 0.6251221
vt 0.4998779 0.6251221
vt 0.4998779 0.6873779
vt 0.4001221 0.6873779
vt 0.5001221 0.6251221
vt 0.599878 0.6251221
vt 0.599878 0.6873779
vt 0.5001221 0.6873779
vt 0.0001220703 0.5626221
vt 0.09987793 0.5626221
vt 0.09987793 0.6248779
vt 0.0001220703 0.6248779
vt 0.1001221 0.6251221
vt 0.1998779 0.6251221
vt 0.1998779 0.6873779
vt 0.1001221 0.6873779
vt 0.2001221 0.6251221
vt 0.2998779 0.6251221
vt 0.2998779 0.6873779
vt 0.2001221 0.6873779
vt 0.0001220703 0.6251221
vt 0.09987793 0.6251221
vt 0.09987793 0.6873779
vt 0.0001220703 0.6873779
vt 0.0001220703 0.5001221
vt 0.09987793 0.5001221
vt 0.09987793 0.5623779
vt 0.0001220703 0.5623779
vt 0.6001221 0.5626221
vt 0.6998779 0.5626221
vt 0.6998779 0.6248779
vt 0.6001221 0.6248779
vt 0.4001221 0.2501221
vt 0.4998779 0.2501221
vt 0.4998779 0.3123779
vt 0.4001221 0.3123779
vt 0.1001221 0.2501221
vt 0.1998779 0.2501221
vt 0.1998779 0.3123779
vt 0.1001221 0.3123779
vt 0.5001221 0.2501221
vt 0.599878 0.2501221
vt 0.599878 0.3123779
vt 0.5001221 0.3123779
vt 0.2001221 0.5626221
vt 0.2998779 0.5626221
vt 0.2998779 0.6248779
vt 0.2001221 0.6248779
vt 0.4001221 0.5626221
vt 0.4998779 0.5626221
vt 0.4998779 0.6248779
vt 0.4001221 0.6248779
vt 0.3001221 0.5626221
vt 0.3998779 0.5626221
vt 0.3998779 0.6248779
vt 0.3001221 0.6248779
vt 0.5001221 0.5626221
vt 0.599878 0.5626221
vt 0.599878 0.6248779
vt 0.5001221 0.6248779
vt 0.1001221 0.5626221
vt 0.1998779 0.5626221
vt 0.1998779 0.6248779
vt 0.1001221 0.6248779

# Normal
vn 0 0 -1

# Groups (Count = 5)

g mesh_0001
f 1/1/1 2/2/1 3/3/1 4/4/1
f 2/1/1 5/2/1 6/3/1 3/4/1
f 5/1/1 7/2/1 8/3/1 6/4/1
f 7/1/1 9/2/1 10/3/1 8/4/1
f 9/1/1 11/2/1 12/3/1 10/4/1
f 11/1/1 13/2/1 14/3/1 12/4/1
f 13/1/1 15/2/1 16/3/1 14/4/1
f 15/1/1 17/2/1 18/3/1 16/4/1
f 19/1/1 20/2/1 21/3/1 22/4/1
f 20/1/1 23/2/1 24/3/1 21/4/1
f 23/1/1 25/2/1 26/3/1 24/4/1
f 25/1/1 27/2/1 28/3/1 26/4/1
f 27/1/1 29/2/1 30/3/1 28/4/1
f 29/1/1 31/2/1 32/3/1 30/4/1
f 31/1/1 33/2/1 34/3/1 32/4/1
f 33/1/1 35/2/1 36/3/1 34/4/1
f 37/1/1 38/2/1 39/3/1 40/4/1
f 38/1/1 41/2/1 42/3/1 39/4/1
f 41/1/1 43/2/1 44/3/1 42/4/1
f 43/1/1 45/2/1 46/3/1 44/4/1
f 45/1/1 47/2/1 48/3/1 46/4/1
f 47/1/1 49/2/1 50/3/1 48/4/1
f 49/1/1 51/2/1 52/3/1 50/4/1
f 51/1/1 53/2/1 54/3/1 52/4/1
f 55/1/1 56/2/1 57/3/1 58/4/1
f 56/1/1 59/2/1 60/3/1 57/4/1
f 59/1/1 61/2/1 62/3/1 60/4/1
f 61/1/1 63/2/1 64/3/1 62/4/1
f 63/1/1 65/2/1 66/3/1 64/4/1
f 65/1/1 67/2/1 68/3/1 66/4/1
f 67/1/1 69/2/1 70/3/1 68/4/1
f 69/1/1 71/2/1 72/3/1 70/4/1
f 73/1/1 74/2/1 2/3/1 1/4/1
f 74/1/1 75/2/1 5/3/1 2/4/1
f 75/1/1 76/2/1 7/3/1 5/4/1
f 76/1/1 77/2/1 9/3/1 7/4/1
f 77/1/1 78/2/1 11/3/1 9/4/1
f 78/1/1 79/2/1 13/3/1 11/4/1
f 79/1/1 80/2/1 15/3/1 13/4/1
f 80/1/1 81/2/1 17/3/1 15/4/1
f 82/1/1 83/2/1 20/3/1 19/4/1
f 83/1/1 84/2/1 23/3/1 20/4/1
f 84/1/1 85/2/1 25/3/1 23/4/1
f 85/1/1 86/2/1 27/3/1 25/4/1
f 86/1/1 87/2/1 29/3/1 27/4/1
f 87/1/1 88/2/1 31/3/1 29/4/1
f 88/1/1 89/2/1 33/3/1 31/4/1
f 89/1/1 90/2/1 35/3/1 33/4/1
f 91/1/1 92/2/1 38/3/1 37/4/1
f 92/1/1 93/2/1 41/3/1 38/4/1
f 93/1/1 94/2/1 43/3/1 41/4/1
f 94/1/1 95/2/1 45/3/1 43/4/1
f 95/1/1 96/2/1 47/3/1 45/4/1
f 96/1/1 97/2/1 49/3/1 47/4/1
f 97/1/1 98/2/1 51/3/1 49/4/1
f 98/1/1 99/2/1 53/3/1 51/4/1
f 100/1/1 101/2/1 56/3/1 55/4/1
f 101/1/1 102/2/1 59/3/1 56/4/1
f 102/1/1 103/2/1 61/3/1 59/4/1
f 103/1/1 104/2/1 63/3/1 61/4/1
f 104/1/1 105/2/1 65/3/1 63/4/1
f 105/1/1 106/2/1 67/3/1 65/4/1
f 106/1/1 107/2/1 69/3/1 67/4/1
f 107/1/1 108/2/1 71/3/1 69/4/1
f 109/1/1 110/2/1 74/3/1 73/4/1
f 110/1/1 111/2/1 75/3/1 74/4/1
f 111/1/1 112/2/1 76/3/1 75/4/1
f 112/1/1 113/2/1 77/3/1 76/4/1
f 113/1/1 114/2/1 78/3/1 77/4/1
f 114/1/1 115/2/1 79/3/1 78/4/1
f 115/1/1 116/2/1 80/3/1 79/4/1
f 116/1/1 117/2/1 81/3/1 80/4/1
f 118/1/1 119/2/1 83/3/1 82/4/1
f 119/1/1 120/2/1 84/3/1 83/4/1
f 120/1/1 121/2/1 85/3/1 84/4/1
f 121/1/1 122/2/1 86/3/1 85/4/1
f 122/1/1 123/2/1 87/3/1 86/4/1
f 123/1/1 124/2/1 88/3/1 87/4/1
f 124/1/1 125/2/1 89/3/1 88/4/1
f 125/1/1 126/2/1 90/3/1 89/4/1
f 127/1/1 128/2/1 92/3/1 91/4/1
f 128/1/1 129/2/1 93/3/1 92/4/1
f 129/1/1 130/2/1 94/3/1 93/4/1
f 130/1/1 131/2/1 95/3/1 94/4/1
f 131/1/1 132/2/1 96/3/1 95/4/1
f 132/1/1 133/2/1 97/3/1 96/4/1
f 133/1/1 134/2/1 98/3/1 97/4/1
f 134/1/1 135/2/1 99/3/1 98/4/1
f 136/1/1 137/2/1 101/3/1 100/4/1
f 137/1/1 138/2/1 102/3/1 101/4/1
f 138/1/1 139/2/1 103/3/1 102/4/1
f 139/1/1 140/2/1 104/3/1 103/4/1
f 140/1/1 141/2/1 105/3/1 104/4/1
f 141/1/1 142/2/1 106/3/1 105/4/1
f 142/1/1 143/2/1 107/3/1 106/4/1
f 143/1/1 144/2/1 108/3/1 107/4/1
f 145/1/1 146/2/1 110/3/1 109/4/1
f 146/1/1 147/2/1 111/3/1 110/4/1
f 147/1/1 148/2/1 112/3/1 111/4/1
f 148/1/1 149/2/1 113/3/1 112/4/1
f 149/1/1 150/2/1 114/3/1 113/4/1
f 150/1/1 151/2/1 115/3/1 114/4/1
f 151/1/1 152/2/1 116/3/1 115/4/1
f 152/1/1 153/2/1 117/3/1 116/4/1
f 154/1/1 155/2/1 119/3/1 118/4/1
f 155/1/1 156/2/1 120/3/1 119/4/1
f 156/1/1 157/2/1 121/3/1 120/4/1
f 157/1/1 158/2/1 122/3/1 121/4/1
f 158/1/1 159/2/1 123/3/1 122/4/1
f 159/1/1 160/2/1 124/3/1 123/4/1
f 160/1/1 161/2/1 125/3/1 124/4/1
f 161/1/1 162/2/1 126/3/1 125/4/1
f 163/1/1 164/2/1 128/3/1 127/4/1
f 164/1/1 165/2/1 129/3/1 128/4/1
f 165/1/1 166/2/1 130/3/1 129/4/1
f 166/1/1 167/2/1 131/3/1 130/4/1
f 167/1/1 168/2/1 132/3/1 131/4/1
f 168/1/1 169/2/1 133/3/1 132/4/1
f 169/1/1 170/2/1 134/3/1 133/4/1
f 170/1/1 171/2/1 135/3/1 134/4/1
f 172/1/1 173/2/1 137/3/1 136/4/1
f 173/1/1 174/2/1 138/3/1 137/4/1
f 174/1/1 175/2/1 139/3/1 138/4/1
f 175/1/1 176/2/1 140/3/1 139/4/1
f 176/1/1 177/2/1 141/3/1 140/4/1
f 177/1/1 178/2/1 142/3/1 141/4/1
f 178/1/1 179/2/1 143/3/1 142/4/1
f 179/1/1 180/2/1 144/3/1 143/4/1
f 181/1/1 182/2/1 146/3/1 145/4/1
f 182/1/1 183/2/1 147/3/1 146/4/1
f 183/1/1 184/2/1 148/3/1 147/4/1
f 184/1/1 185/2/1 149/3/1 148/4/1
f 185/1/1 186/2/1 150/3/1 149/4/1
f 186/1/1 187/2/1 151/3/1 150/4/1
f 187/1/1 188/2/1 152/3/1 151/4/1
f 188/1/1 189/2/1 153/3/1 152/4/1
f 190/1/1 191/2/1 155/3/1 154/4/1
f 191/1/1 192/2/1 156/3/1 155/4/1
f 192/1/1 193/2/1 157/3/1 156/4/1
f 193/1/1 194/2/1 158/3/1 157/4/1
f 194/1/1 195/2/1 159/3/1 158/4/1
f 195/1/1 196/2/1 160/3/1 159/4/1
f 196/1/1 197/2/1 161/3/1 160/4/1
f 197/1/1 198/2/1 162/3/1 161/4/1
f 199/1/1 200/2/1 164/3/1 163/4/1
f 200/1/1 201/2/1 165/3/1 164/4/1
f 201/1/1 202/2/1 166/3/1 165/4/1
f 202/1/1 203/2/1 167/3/1 166/4/1
f 203/1/1 204/2/1 168/3/1 167/4/1
f 204/1/1 205/2/1 169/3/1 168/4/1
f 205/1/1 206/2/1 170/3/1 169/4/1
f 206/1/1 207/2/1 171/3/1 170/4/1
f 208/1/1 209/2/1 173/3/1 172/4/1
f 209/1/1 210/2/1 174/3/1 173/4/1
f 210/1/1 211/2/1 175/3/1 174/4/1
f 211/1/1 212/2/1 176/3/1 175/4/1
f 212/1/1 213/2/1 177/3/1 176/4/1
f 213/1/1 214/2/1 178/3/1 177/4/1
f 214/1/1 215/2/1 179/3/1 178/4/1
f 215/1/1 216/2/1 180/3/1 179/4/1
f 217/1/1 218/2/1 182/3/1 181/4/1
f 218/1/1 219/2/1 183/3/1 182/4/1
f 219/1/1 220/2/1 184/3/1 183/4/1
f 220/1/1 221/2/1 185/3/1 184/4/1
f 221/1/1 222/2/1 186/3/1 185/4/1
f 222/1/1 223/2/1 187/3/1 186/4/1
f 223/1/1 224/2/1 188/3/1 187/4/1
f 224/1/1 225/2/1 189/3/1 188/4/1
f 226/1/1 227/2/1 191/3/1 190/4/1
f 227/1/1 228/2/1 192/3/1 191/4/1
f 228/1/1 229/2/1 193/3/1 192/4/1
f 229/1/1 230/2/1 194/3/1 193/4/1
f 230/1/1 231/2/1 195/3/1 194/4/1
f 231/1/1 232/2/1 196/3/1 195/4/1
f 232/1/1 233/2/1 197/3/1 196/4/1
f 233/1/1 234/2/1 198/3/1 197/4/1

g mesh_0002
f 149/5/1 150/6/1 114/7/1 113/8/1
f 156/9/1 157/10/1 121/11/1 120/12/1
f 157/5/1 158/6/1 122/7/1 121/8/1
f 158/13/1 159/14/1 123/15/1 122/16/1
f 166/9/1 167/10/1 131/11/1 130/12/1
f 167/17/1 168/18/1 132/19/1 131/20/1
f 168/13/1 169/14/1 133/15/1 132/16/1
f 174/21/1 175/22/1 139/23/1 138/24/1
f 175/25/1 176/26/1 140/27/1 139/28/1
f 176/29/1 177/30/1 141/31/1 140/32/1
f 177/33/1 178/34/1 142/35/1 141/36/1
f 184/37/1 185/38/1 149/39/1 148/40/1
f 185/41/1 186/42/1 150/43/1 149/44/1
f 186/45/1 187/46/1 151/47/1 150/48/1
f 187/33/1 188/34/1 152/35/1 151/36/1
f 192/49/1 193/50/1 157/51/1 156/52/1
f 193/53/1 194/54/1 158/55/1 157/56/1
f 194/57/1 195/58/1 159/59/1 158/60/1
f 195/61/1 196/62/1 160/63/1 159/64/1
f 196/65/1 197/66/1 161/67/1 160/68/1
f 202/49/1 203/50/1 167/51/1 166/52/1
f 203/53/1 204/54/1 168/55/1 167/56/1
f 204/9/1 205/10/1 169/11/1 168/12/1
f 205/69/1 206/70/1 170/71/1 169/72/1
f 211/49/1 212/50/1 176/51/1 175/52/1
f 212/73/1 213/74/1 177/75/1 176/76/1
f 213/9/1 214/10/1 178/11/1 177/12/1
f 221/49/1 222/50/1 186/51/1 185/52/1
f 222/69/1 223/70/1 187/71/1 186/72/1
f 223/77/1 224/78/1 188/79/1 187/80/1
f 230/81/1 231/82/1 195/83/1 194/84/1
f 231/85/1 232/86/1 196/87/1 195/88/1

g mesh_0003
f 102/89/1 103/90/1 61/91/1 59/92/1
f 111/89/1 112/90/1 76/91/1 75/92/1
f 112/93/1 113/94/1 77/95/1 76/96/1
f 119/89/1 120/90/1 84/91/1 83/92/1
f 120/93/1 121/94/1 85/95/1 84/96/1
f 121/93/1 122/94/1 86/95/1 85/96/1
f 128/89/1 129/90/1 93/91/1 92/92/1
f 129/93/1 130/94/1 94/95/1 93/96/1
f 130/93/1 131/94/1 95/95/1 94/96/1
f 131/89/1 132/90/1 96/91/1 95/92/1
f 136/89/1 137/90/1 101/91/1 100/92/1
f 137/89/1 138/90/1 102/91/1 101/92/1
f 138/93/1 139/94/1 103/95/1 102/96/1
f 139/93/1 140/94/1 104/95/1 103/96/1
f 140/89/1 141/90/1 105/91/1 104/92/1
f 146/89/1 147/90/1 111/91/1 110/92/1
f 147/93/1 148/94/1 112/95/1 111/96/1
f 148/89/1 149/90/1 113/91/1 112/92/1
f 149/89/1 150/90/1 114/91/1 113/92/1
f 150/93/1 151/94/1 115/95/1 114/96/1
f 155/89/1 156/90/1 120/91/1 119/92/1
f 156/97/1 157/98/1 121/99/1 120/100/1
f 157/101/1 158/102/1 122/103/1 121/104/1
f 158/105/1 159/106/1 123/107/1 122/108/1
f 159/109/1 160/110/1 124/111/1 123/112/1
f 165/93/1 166/94/1 130/95/1 129/96/1
f 169/113/1 170/114/1 134/115/1 133/116/1
f 174/117/1 175/118/1 139/119/1 138/120/1
f 191/121/1 192/122/1 156/123/1 155/124/1
f 200/125/1 201/126/1 165/127/1 164/128/1
f 201/121/1 202/122/1 166/123/1 165/124/1
f 209/125/1 210/126/1 174/127/1 173/128/1
f 210/129/1 211/130/1 175/131/1 174/132/1
f 219/125/1 220/126/1 184/127/1 183/128/1

g mesh_0004
f 84/89/1 85/90/1 25/91/1 23/92/1
f 93/89/1 94/90/1 43/91/1 41/92/1
f 94/89/1 95/90/1 45/91/1 43/92/1
f 101/89/1 102/90/1 59/91/1 56/92/1
f 102/133/1 103/134/1 61/135/1 59/136/1
f 103/89/1 104/90/1 63/91/1 61/92/1
f 111/137/1 112/138/1 76/139/1 75/140/1
f 112/141/1 113/142/1 77/143/1 76/144/1
f 120/145/1 121/146/1 85/147/1 84/148/1
f 121/89/1 122/90/1 86/91/1 85/92/1
f 122/93/1 123/94/1 87/95/1 86/96/1
f 129/137/1 130/138/1 94/139/1 93/140/1
f 131/89/1 132/90/1 96/91/1 95/92/1
f 137/89/1 138/90/1 102/91/1 101/92/1
f 138/145/1 139/146/1 103/147/1 102/148/1
f 147/101/1 148/102/1 112/103/1 111/104/1

g mesh_0005
f 59/89/1 61/90/1 62/91/1 60/92/1
f 75/149/1 76/150/1 7/151/1 5/152/1
f 76/89/1 77/90/1 9/91/1 7/92/1
f 83/133/1 84/134/1 23/135/1 20/136/1
f 85/89/1 86/90/1 27/91/1 25/92/1

