# Wavefront OBJ file automatically generated by Tiled2Unity

# Vertices (Count = 10)
v 0 -512 0
v -512 -512 0
v -512 0 0
v 0 0 0
v 0 -640 0
v -512 -640 0
v -512 -128 0
v 0 -128 0
v 0 -1024 0
v -512 -1024 0

# Texture cooridinates (Count = 4)
vt 0.0001220703 0.0001220703
vt 0.9998779 0.0001220703
vt 0.9998779 0.9998779
vt 0.0001220703 0.9998779

# Normal
vn 0 0 -1

# Groups (Count = 59)

g mesh_tile_0001
f 1/1/1 2/2/1 3/3/1 4/4/1

g mesh_tile_0029
f 5/1/1 6/2/1 7/3/1 8/4/1

g mesh_tile_0100
f 1/1/1 2/2/1 3/3/1 4/4/1

g mesh_tile_0014
f 5/1/1 6/2/1 7/3/1 8/4/1

g mesh_tile_0002
f 1/1/1 2/2/1 3/3/1 4/4/1

g mesh_tile_0030
f 5/1/1 6/2/1 7/3/1 8/4/1

g mesh_tile_0101
f 1/1/1 2/2/1 3/3/1 4/4/1

g mesh_tile_0015
f 5/1/1 6/2/1 7/3/1 8/4/1

g mesh_tile_0003
f 1/1/1 2/2/1 3/3/1 4/4/1

g mesh_tile_0031
f 5/1/1 6/2/1 7/3/1 8/4/1

g mesh_tile_0006
f 5/1/1 6/2/1 7/3/1 8/4/1

g mesh_tile_0016
f 5/1/1 6/2/1 7/3/1 8/4/1

g mesh_tile_0022
f 5/1/1 6/2/1 7/3/1 8/4/1

g mesh_tile_0032
f 5/1/1 6/2/1 7/3/1 8/4/1

g mesh_tile_0007
f 5/1/1 6/2/1 7/3/1 8/4/1

g mesh_tile_0017
f 5/1/1 6/2/1 7/3/1 8/4/1

g mesh_tile_0023
f 5/1/1 6/2/1 7/3/1 8/4/1

g mesh_tile_0033
f 5/1/1 6/2/1 7/3/1 8/4/1

g mesh_tile_0008
f 5/1/1 6/2/1 7/3/1 8/4/1

g mesh_tile_0018
f 5/1/1 6/2/1 7/3/1 8/4/1

g mesh_tile_0024
f 5/1/1 6/2/1 7/3/1 8/4/1

g mesh_tile_0034
f 5/1/1 6/2/1 7/3/1 8/4/1

g mesh_tile_0009
f 5/1/1 6/2/1 7/3/1 8/4/1

g mesh_tile_0025
f 5/1/1 6/2/1 7/3/1 8/4/1

g mesh_tile_0035
f 5/1/1 6/2/1 7/3/1 8/4/1

g mesh_tile_0010
f 5/1/1 6/2/1 7/3/1 8/4/1

g mesh_tile_0020
f 5/1/1 6/2/1 7/3/1 8/4/1

g mesh_tile_0026
f 5/1/1 6/2/1 7/3/1 8/4/1

g mesh_tile_0036
f 5/1/1 6/2/1 7/3/1 8/4/1

g mesh_tile_0011
f 5/1/1 6/2/1 7/3/1 8/4/1

g mesh_tile_0027
f 5/1/1 6/2/1 7/3/1 8/4/1

g mesh_tile_0037
f 5/1/1 6/2/1 7/3/1 8/4/1

g mesh_tile_0012
f 5/1/1 6/2/1 7/3/1 8/4/1

g mesh_tile_0028
f 5/1/1 6/2/1 7/3/1 8/4/1

g mesh_tile_0099
f 1/1/1 2/2/1 3/3/1 4/4/1

g mesh_tile_0013
f 5/1/1 6/2/1 7/3/1 8/4/1

g mesh_tile_0038
f 9/1/1 10/2/1 3/3/1 4/4/1

g mesh_tile_0084
f 9/1/1 10/2/1 3/3/1 4/4/1

g mesh_tile_0083
f 9/1/1 10/2/1 3/3/1 4/4/1

g mesh_tile_0095
f 1/1/1 2/2/1 3/3/1 4/4/1

g mesh_tile_0043
f 1/1/1 2/2/1 3/3/1 4/4/1

g mesh_tile_0044
f 1/1/1 2/2/1 3/3/1 4/4/1

g mesh_tile_0108
f 1/1/1 2/2/1 3/3/1 4/4/1

g mesh_tile_0109
f 1/1/1 2/2/1 3/3/1 4/4/1

g mesh_tile_0045
f 9/1/1 10/2/1 3/3/1 4/4/1

g mesh_tile_0088
f 1/1/1 2/2/1 3/3/1 4/4/1

g mesh_tile_0097
f 1/1/1 2/2/1 3/3/1 4/4/1

g mesh_tile_0107
f 1/1/1 2/2/1 3/3/1 4/4/1

g mesh_tile_0110
f 1/1/1 2/2/1 3/3/1 4/4/1

g mesh_tile_0046
f 1/1/1 2/2/1 3/3/1 4/4/1

g mesh_tile_0090
f 1/1/1 2/2/1 3/3/1 4/4/1

g mesh_tile_0082
f 9/1/1 10/2/1 3/3/1 4/4/1

g mesh_tile_0047
f 1/1/1 2/2/1 3/3/1 4/4/1

g mesh_tile_0048
f 1/1/1 2/2/1 3/3/1 4/4/1

g mesh_tile_0106
f 9/1/1 10/2/1 3/3/1 4/4/1

g mesh_tile_0111
f 1/1/1 2/2/1 3/3/1 4/4/1

g mesh_tile_0112
f 1/1/1 2/2/1 3/3/1 4/4/1

g mesh_tile_0096
f 1/1/1 2/2/1 3/3/1 4/4/1

g mesh_tile_0091
f 1/1/1 2/2/1 3/3/1 4/4/1

